<svg width="48" height="48" viewBox="0 0 48 48" fill="none" xmlns="http://www.w3.org/2000/svg">
<rect width="48" height="48" fill="#FC5D1E"/>
<path d="M41.3267 18.98C41.5697 19.0033 41.7907 19.1309 41.9323 19.3296C42.0948 19.5582 42.0851 19.9612 42.0648 20.7661L41.9494 25.3645C41.9225 26.4308 41.909 26.9644 41.6954 27.1969C41.5104 27.3984 41.2386 27.4972 40.9672 27.4621C40.6542 27.4214 40.3007 27.0218 39.5943 26.2229L39.5366 26.1568L38.8188 27.4C38.3527 28.2074 37.3206 28.4845 36.5132 28.0186C35.7057 27.5523 35.4289 26.5196 35.8951 25.7121L36.6129 24.4688L36.526 24.4514C35.4809 24.2391 34.9581 24.1327 34.7664 23.882C34.6003 23.6646 34.55 23.3798 34.6319 23.1188C34.7265 22.8176 35.1818 22.5391 36.0919 21.9827L40.0165 19.5835C40.7034 19.1635 41.0476 18.9535 41.3267 18.98Z" fill="#FFF0DA"/>
<mask id="mask0_14739_140678" style="mask-type:alpha" maskUnits="userSpaceOnUse" x="8" y="12" width="28" height="24">
<path d="M33.6166 29.6371C34.1531 29.6371 34.6174 29.8434 35.0095 30.2561C35.4222 30.6688 35.6285 31.1228 35.6285 31.618C35.6285 32.1545 35.3809 32.6601 34.8857 33.1347C34.4111 33.5886 33.7817 33.9498 32.9976 34.218C32.2341 34.4863 31.45 34.6204 30.6452 34.6204C28.1277 34.6204 26.3016 33.1863 25.1666 30.318C22.5666 33.4545 19.6674 35.0228 16.469 35.0228C14.8389 35.0228 13.3944 34.6307 12.1357 33.8466C10.877 33.0625 9.89679 31.9688 9.1952 30.5656C8.49362 29.1625 8.14282 27.5426 8.14282 25.7061C8.14282 23.5807 8.59679 21.5172 9.50473 19.5156C10.4333 17.514 11.7333 15.8839 13.4047 14.6252C15.0968 13.3664 17.0158 12.7371 19.1619 12.7371C21.3285 12.7371 23.0722 13.3664 24.3928 14.6252C25.7135 15.8839 26.6627 17.514 27.2404 19.5156L29.3762 15.6775C29.5412 15.368 29.7785 15.1204 30.0881 14.9347C30.4182 14.7283 30.769 14.6252 31.1404 14.6252C31.6976 14.6252 32.1722 14.8212 32.5643 15.2133C32.9563 15.6053 33.1523 16.0696 33.1523 16.6061C33.1523 16.9569 33.0285 17.3799 32.7809 17.8752C30.6968 21.6307 29.1492 24.3339 28.1381 25.9847C28.6127 29.0593 29.5103 30.5966 30.8309 30.5966C31.0785 30.5966 31.2952 30.5553 31.4809 30.4728C31.6666 30.3902 31.9143 30.2664 32.2238 30.1013C32.4301 29.9775 32.6571 29.8744 32.9047 29.7918C33.1523 29.6886 33.3897 29.6371 33.6166 29.6371ZM12.1666 25.7061C12.1666 27.3775 12.5484 28.6775 13.3119 29.6061C14.0754 30.5347 15.1277 30.999 16.469 30.999C17.6658 30.999 18.7595 30.6482 19.75 29.9466C20.7404 29.245 21.6793 28.2958 22.5666 27.099C23 26.5006 23.4643 25.8196 23.9595 25.0561L23.8047 23.2299C23.6603 21.249 23.2166 19.6807 22.4738 18.5252C21.7309 17.349 20.6063 16.7609 19.1 16.7609C17.8206 16.7609 16.6444 17.1839 15.5714 18.0299C14.519 18.8759 13.6833 19.9902 13.0643 21.3728C12.4658 22.7553 12.1666 24.1998 12.1666 25.7061Z" fill="#FFF0DA"/>
</mask>
<g mask="url(#mask0_14739_140678)">
<rect x="8.02271" y="10.1479" width="29.025" height="29.025" fill="#FFF0DA"/>
<path d="M25.1116 30.3704C26.2822 28.8628 26.9573 27.9043 28.1527 25.9529L31.4396 30.3704L28.1527 37.2277L25.1116 30.3704Z" fill="url(#paint0_linear_14739_140678)"/>
<path d="M20.0061 18.5655L23.9302 25.1028C25.3289 22.8559 26.0762 21.6201 27.2541 19.4894L25.078 10.9732L20.0061 18.5655Z" fill="url(#paint1_linear_14739_140678)"/>
</g>
<path d="M0 24C0 10.7452 10.7452 0 24 0V0C37.2548 0 48 10.7452 48 24V24C48 37.2548 37.2548 48 24 48V48C10.7452 48 0 37.2548 0 24V24Z" fill="#FC5D1E"/>
<path d="M40.8139 19.0489C41.0597 19.0722 41.2835 19.2015 41.4266 19.4027C41.5909 19.6336 41.5804 20.0405 41.5599 20.8536L41.4438 25.5003C41.4167 26.5769 41.4023 27.1156 41.187 27.3507C40.9999 27.5544 40.725 27.6556 40.4508 27.62C40.1345 27.5789 39.7778 27.1742 39.0639 26.3667L39.0053 26.3L38.2795 27.5572C37.8083 28.3726 36.7654 28.6524 35.9497 28.1814C35.1342 27.7104 34.8549 26.6673 35.3254 25.8516L36.0513 24.5944L35.9642 24.5771C34.908 24.3626 34.3791 24.256 34.1854 24.0026C34.0175 23.783 33.9676 23.4943 34.0505 23.2304C34.1464 22.9264 34.6057 22.6446 35.5246 22.0828L39.4907 19.6589C40.1847 19.2347 40.5318 19.0221 40.8139 19.0489Z" fill="#FFF0DA"/>
<path d="M18.4192 12.7417C20.6084 12.7417 22.3701 13.3776 23.7045 14.6494C25.0388 15.9212 25.9979 17.5683 26.5817 19.5907L28.7396 15.7128C28.9064 15.4 29.1462 15.1497 29.459 14.962C29.7925 14.7536 30.1471 14.6494 30.5224 14.6494C31.0852 14.6494 31.5647 14.8475 31.9608 15.2436C32.357 15.6397 32.555 16.1089 32.555 16.6509C32.555 17.0054 32.4298 17.4327 32.1796 17.9331C30.0738 21.7277 28.5101 24.459 27.4885 26.127C27.9681 29.2335 28.8751 30.7867 30.2094 30.7867C30.4596 30.7867 30.6787 30.7452 30.8664 30.6618C31.054 30.5784 31.3041 30.4532 31.6168 30.2864C31.8253 30.1613 32.0547 30.0572 32.3048 29.9738C32.555 29.8695 32.7949 29.8172 33.0242 29.8172C33.5663 29.8172 34.0355 30.0257 34.4316 30.4427C34.8485 30.8597 35.0568 31.3184 35.0569 31.8187C35.0569 32.3608 34.8068 32.8718 34.3064 33.3513C33.8269 33.81 33.1909 34.1748 32.3987 34.4458C31.6273 34.7168 30.8349 34.8523 30.0218 34.8523C27.4782 34.8522 25.633 33.4034 24.4863 30.5055C21.8593 33.6745 18.9299 35.259 15.6983 35.259C14.0512 35.259 12.5919 34.8627 11.3201 34.0704C10.0483 33.2782 9.0579 32.1733 8.34903 30.7556C7.64015 29.3379 7.28564 27.701 7.28564 25.8455C7.28565 23.698 7.74429 21.613 8.66166 19.5907C9.59987 17.5683 10.9135 15.9212 12.6023 14.6494C14.3119 13.3776 16.2509 12.7417 18.4192 12.7417ZM18.3568 16.8073C17.0642 16.8073 15.8756 17.2347 14.7915 18.0894C13.7282 18.9443 12.8838 20.0704 12.2583 21.4673C11.6537 22.8641 11.3512 24.3235 11.3512 25.8455C11.3512 27.5343 11.737 28.8479 12.5084 29.7861C13.2798 30.7243 14.3431 31.1935 15.6983 31.1935C16.9076 31.1935 18.0126 30.839 19.0134 30.1301C20.0141 29.4212 20.9627 28.4621 21.8593 27.2528C22.2971 26.6482 22.7663 25.9602 23.2666 25.1888L23.1103 23.3436C22.9644 21.3421 22.516 19.7576 21.7654 18.59C21.0149 17.4016 19.8787 16.8073 18.3568 16.8073Z" fill="#FFF0DA"/>
<path d="M27.5056 26.0978C27.4997 26.1073 27.4942 26.1172 27.4884 26.1267C27.9679 29.2332 28.875 30.7864 30.2093 30.7864C30.4116 30.7864 30.5932 30.7584 30.7546 30.7039L28.8227 34.7339C26.8898 34.3355 25.4442 32.9262 24.4862 30.5051C24.469 30.5258 24.4512 30.5459 24.434 30.5665L24.4307 30.5584C25.6134 29.0351 26.2955 28.0664 27.5034 26.0947L27.5056 26.0978Z" fill="url(#paint2_linear_14739_140678)"/>
<path d="M23.2366 25.2358L23.2358 25.2347C23.2435 25.2229 23.2515 25.2112 23.2591 25.1994C23.2516 25.2115 23.2442 25.2237 23.2366 25.2358ZM22.5273 13.7571C22.9508 14.008 23.3432 14.3051 23.7042 14.6492C25.0383 15.9207 25.9971 17.5675 26.5809 19.5893C25.4071 21.7115 24.6548 22.9567 23.2661 25.188L23.11 23.3433C22.9641 21.3418 22.5157 19.7573 21.7651 18.5898C21.3641 17.9548 20.853 17.4895 20.2317 17.1938L22.5273 13.7571Z" fill="url(#paint3_linear_14739_140678)"/>
<defs>
<linearGradient id="paint0_linear_14739_140678" x1="26.6207" y1="28.5224" x2="29.9892" y2="31.9086" gradientUnits="userSpaceOnUse">
<stop stop-color="#EDD2AB"/>
<stop offset="1" stop-color="#FFF0DA"/>
</linearGradient>
<linearGradient id="paint1_linear_14739_140678" x1="26.7079" y1="22.1754" x2="21.4385" y2="18.9083" gradientUnits="userSpaceOnUse">
<stop stop-color="#EDD6B4"/>
<stop offset="1" stop-color="#FFF0DA"/>
</linearGradient>
<linearGradient id="paint2_linear_14739_140678" x1="25.9555" y1="28.6911" x2="29.3589" y2="32.1125" gradientUnits="userSpaceOnUse">
<stop stop-color="#EDD2AB"/>
<stop offset="1" stop-color="#FFF0DA"/>
</linearGradient>
<linearGradient id="paint3_linear_14739_140678" x1="26.0433" y1="22.2779" x2="20.7191" y2="18.977" gradientUnits="userSpaceOnUse">
<stop stop-color="#EDD6B4"/>
<stop offset="1" stop-color="#FFF0DA"/>
</linearGradient>
</defs>
</svg>
